<svg width="105" height="105" viewBox="0 0 105 105" fill="none" xmlns="http://www.w3.org/2000/svg">
<rect width="105" height="105" fill="#7879F1"/>
<path d="M90.8506 0H14.1495C6.33541 0 0.000549316 6.3346 0.000549316 14.149V90.8505C0.000549316 98.6649 6.33515 104.999 14.1495 104.999H51.9781L52.0426 67.4784H42.2946C41.0278 67.4784 39.9996 66.454 39.9947 65.1872L39.948 53.0926C39.9431 51.8188 40.9744 50.7837 42.2481 50.7837H51.9784V39.0972C51.9784 25.5352 60.2612 18.1505 72.3594 18.1505H82.287C83.5571 18.1505 84.5871 19.1803 84.5871 20.4507V30.6489C84.5871 31.9188 83.5579 32.9483 82.2882 32.9491L76.1959 32.9519C69.6165 32.9519 68.3425 36.0784 68.3425 40.6666V50.7839H82.7996C84.1772 50.7839 85.2459 51.9868 85.0836 53.3548L83.6501 65.4494C83.5129 66.6068 82.5315 67.4789 81.3661 67.4789H68.4069L68.3425 105H90.8511C98.6652 105 105 98.6654 105 90.8513V14.149C105 6.3346 98.6649 0 90.8506 0Z" fill="#F8F9FF"/>
</svg>
